PathFileType	4	(X/Y/Z)	C:/Users/opensim2020/Desktop/walking_exp_matlab/subject02_walking04_straight_04.trc																																																																																																																												
DataRate	CameraRate	NumFrames	NumMarkers	Units	OrigDataRate	OrigDataStartFrame	OrigNumFrames																																																																																																																								
100	100	4	42	mm	100	3133	239																																																																																																																								
Frame#	Time	LFHD			RFHD			LBHD			RBHD			C7			T10			CLAV			STRN			RBAK			LSHO			LUPA			LELB			LFRM			LWRA			LWRB			LFIN			RSHO			RUPA			RELB			RFRM			RWRA			RWRB			RFIN			LASI			RASI			LPSI			RPSI			LTHI			LKNE			LTIB			LANK			LHEE			LTOE			RTHI			RKNE			RTIB			RANK			RHEE			RTOE			*39			*40			*41		
		X1	Y1	Z1	X2	Y2	Z2	X3	Y3	Z3	X4	Y4	Z4	X5	Y5	Z5	X6	Y6	Z6	X7	Y7	Z7	X8	Y8	Z8	X9	Y9	Z9	X10	Y10	Z10	X11	Y11	Z11	X12	Y12	Z12	X13	Y13	Z13	X14	Y14	Z14	X15	Y15	Z15	X16	Y16	Z16	X17	Y17	Z17	X18	Y18	Z18	X19	Y19	Z19	X20	Y20	Z20	X21	Y21	Z21	X22	Y22	Z22	X23	Y23	Z23	X24	Y24	Z24	X25	Y25	Z25	X26	Y26	Z26	X27	Y27	Z27	X28	Y28	Z28	X29	Y29	Z29	X30	Y30	Z30	X31	Y31	Z31	X32	Y32	Z32	X33	Y33	Z33	X34	Y34	Z34	X35	Y35	Z35	X36	Y36	Z36	X37	Y37	Z37	X38	Y38	Z38	X39	Y39	Z39	X40	Y40	Z40	X41	Y41	Z41	X42	Y42	Z42
																																																																																																																															
210	2.09	869.94189	1708.04053	-1533.72266	839.7146	1687.52405	-1393.91064	728.73975	1667.20471	-1568.61682	688.13544	1648.64941	-1430.90735	632.47333	1527.16248	-1503.74707	570.94019	1246.97314	-1501.83643	768.14056	1449.11755	-1509.73206	815.29596	1278.79565	-1503.78833	564.22864	1348.802	-1444.27588	710.37537	1502.36719	-1679.08606	728.36298	1313.22424	-1783.00989	758.16541	1178.04688	-1814.79907	814.6394	1058.28613	-1833.46191	910.354	961.38928	-1803.59265	868.49652	948.03204	-1839.67468	912.62622	899.09595	-1846.69861	699.23236	1481.19604	-1315.02209	663.72113	1289.99573	-1235.77368	681.88721	1144.33704	-1213.42407	726.63086	1032.20337	-1192.21594	798.13275	917.38	-1206.97595	750.01624	904.21826	-1180.00952	799.3493	851.53931	-1172.61157	809.23529	985.70599	-1636.04004	811.46973	977.92816	-1377.56396	598.00067	1024.51477	-1551.85449	592.85199	1023.724	-1437.79541	737.50397	673.53668	-1672.0813	694.21924	473.11801	-1637.58215	624.01752	289.96011	-1633.49597	610.94489	68.91777	-1589.9032	573.73401	43.03065	-1538.55383	766.29297	28.38114	-1603.58337	787.51276	679.07263	-1287.48865	843.09833	477.21539	-1307.57813	806.69019	292.86014	-1311.80798	807.80554	99.79764	-1346.44373	801.29773	42.58253	-1411.79028	943.96808	50.56942	-1281.51245	771.89526	1795.20166	-1458.56372	NaN	NaN	NaN	NaN	NaN	NaN
211	2.1	878.58167	1706.7312	-1532.40662	847.73901	1686.04492	-1392.75256	737.32709	1666.41431	-1567.94641	696.16357	1647.75891	-1430.44714	640.47522	1526.55896	-1503.64465	578.50665	1246.33252	-1501.37244	775.90454	1448.08557	-1509.22168	822.74457	1277.71851	-1503.42578	571.54449	1348.27905	-1444.29382	719.09448	1501.74976	-1678.60339	739.35406	1313.27002	-1782.66309	771.34021	1178.3645	-1814.37097	829.27289	1059.36047	-1832.71472	925.45972	963.20898	-1801.87292	884.35229	949.65881	-1838.67834	928.99902	901.19415	-1845.29993	706.81641	1480.15991	-1314.50146	669.85779	1288.87976	-1235.72925	686.99481	1143.2334	-1213.36707	731.47748	1030.91638	-1191.78101	803.06287	916.17889	-1206.05005	754.65161	903.08014	-1179.53625	803.75458	850.28229	-1171.7522	816.39691	985.14417	-1635.70227	819.35065	977.1358	-1377.11633	605.23083	1023.62006	-1551.16516	600.38995	1022.68524	-1437.31116	742.89526	672.95074	-1671.90002	697.94647	472.84906	-1637.21936	625.99402	290.3024	-1633.03394	611.22754	69.26871	-1589.62195	573.94879	43.43356	-1538.22095	766.36444	28.31319	-1603.66602	795.5592	678.23694	-1287.69006	852.02307	476.09637	-1309.65125	823.24066	290.22421	-1312.83936	833.0506	97.06983	-1346.22498	829.63257	39.85085	-1411.88025	971.09686	53.05892	-1280.49023	780.51947	1793.99707	-1457.44446	NaN	NaN	NaN	NaN	NaN	NaN
212	2.11	887.09521	1705.36877	-1531.05212	855.72168	1684.55908	-1391.51099	745.94989	1665.5835	-1567.05737	704.00726	1646.83948	-1429.81104	648.3454	1525.79663	-1503.36389	586.03662	1245.63257	-1500.87646	783.88647	1447.14258	-1508.62952	830.20166	1276.6123	-1502.93408	579.20691	1347.526	-1443.98999	727.70148	1501.05176	-1677.95483	750.33002	1313.04492	-1781.99683	784.26111	1178.62646	-1813.66345	843.57928	1060.27246	-1831.69629	940.28741	964.91168	-1800.04468	899.80945	951.21063	-1837.53198	945.06372	903.25641	-1843.90198	713.97778	1479.07666	-1314.19275	676.33319	1288.14221	-1235.43787	692.8006	1142.2688	-1212.88574	736.77057	1029.93677	-1191.30066	807.82751	914.7713	-1205.08533	759.24988	901.85461	-1179.0061	808.28998	848.97125	-1170.78528	823.61121	984.64203	-1635.20691	827.26453	976.31964	-1376.64746	612.56238	1022.6745	-1550.39319	608.07446	1021.58179	-1436.64563	748.11755	672.35431	-1671.6261	701.72589	472.53033	-1636.87866	627.99677	290.75497	-1632.5957	611.48792	69.63728	-1589.32495	574.31671	43.66841	-1537.66821	766.43896	28.28568	-1603.78735	803.39795	677.0932	-1287.92285	860.39978	474.73447	-1311.83936	839.24127	287.96393	-1313.93469	857.48865	95.16358	-1346.29553	856.63977	37.78195	-1411.06799	997.20355	55.54494	-1279.32202	789.08429	1792.98364	-1456.37378	NaN	NaN	NaN	NaN	NaN	NaN
213	2.12	895.59039	1703.98267	-1529.60437	863.5625	1683.01001	-1390.20496	754.44586	1664.70374	-1566.21204	712.01624	1645.85217	-1429.07886	656.07288	1524.88147	-1502.91321	593.67816	1244.69824	-1500.25098	791.62347	1446.06641	-1507.89807	837.68359	1275.52429	-1502.28662	587.05591	1346.56848	-1443.31726	736.16748	1500.22998	-1677.19763	761.15039	1312.67725	-1781.13147	796.8974	1178.72388	-1812.86792	857.50146	1060.99561	-1830.6178	954.74359	966.383	-1798.03442	914.85217	952.58264	-1836.19153	960.34467	904.98419	-1842.08972	721.31433	1478.08032	-1313.75403	682.76996	1287.15076	-1235.05042	698.2879	1141.27332	-1212.60425	742.25092	1028.72632	-1190.34985	812.72986	913.37701	-1204.03186	764.13031	900.52094	-1178.40784	812.6734	847.42676	-1169.76001	830.96893	984.20062	-1634.62146	835.18488	975.487	-1376.15442	620.01837	1021.61517	-1549.51587	615.8559	1020.39838	-1435.88269	753.3183	671.74994	-1671.29529	705.55658	472.26526	-1636.52856	630.03198	291.17706	-1632.125	611.79584	69.93954	-1588.9668	574.5954	44.22591	-1537.19836	766.49585	28.11655	-1603.8335	810.92944	675.5976	-1288.2533	868.76666	473.42087	-1313.9408	854.63422	286.11563	-1315.04883	880.83325	93.66127	-1346.14624	882.71289	36.84534	-1410.82458	1022.22754	58.02094	-1278.32471	797.56232	1791.68298	-1455.07788	NaN	NaN	NaN	NaN	NaN	NaN
